<?xml version="1.0" encoding="UTF-8" standalone="no"?><!DOCTYPE svg PUBLIC "-//W3C//DTD SVG 1.1//EN" "http://www.w3.org/Graphics/SVG/1.1/DTD/svg11.dtd"><svg width="100%" height="100%" viewBox="0 0 2134 2134" version="1.1" xmlns="http://www.w3.org/2000/svg" xmlns:xlink="http://www.w3.org/1999/xlink" xml:space="preserve" style="fill-rule:evenodd;clip-rule:evenodd;stroke-linejoin:round;stroke-miterlimit:1.41421;"><rect id="Artboard1" x="0" y="0" width="2133.33" height="2133.33" style="fill:none;"/><g><g><g transform="matrix(2.3356,0,0,2.3356,357.004,452.748)"><text x="171.653px" y="554.403px" style="font-family:'ArialMT', 'Arial', sans-serif;font-size:602.203px;fill:none;">V</text><text x="171.653px" y="554.403px" style="font-family:'ArialMT', 'Arial', sans-serif;font-size:602.203px;fill:#c62828;stroke:#fff;stroke-width:8.92px;">V</text></g><path d="M1482.99,1289.37l55.511,-135.386l485.576,593.63l-175.813,0l-365.274,-458.244Zm-65.13,-237.691l-133.234,342.173l0,-653.045l133.234,0l0,310.872Z" style="fill:#212121;"/></g><clipPath id="_clip1"><rect id="Python.-logo.-notext" x="109.259" y="385.72" width="1137.06" height="1131.14"/></clipPath><g clip-path="url(#_clip1)"><g id="g1894"><path id="path8615" d="M673.691,385.72c-288.657,0 -270.631,125.179 -270.631,125.179l0.322,129.684l275.458,0l0,38.937l-384.869,0c0,0 -184.712,-20.948 -184.712,270.31c0,291.257 161.22,280.928 161.22,280.928l96.218,0l0,-135.154c0,0 -5.187,-161.221 158.646,-161.221c163.832,0 273.205,0 273.205,0c0,0 153.497,2.482 153.497,-148.348c0,-150.83 0,-249.393 0,-249.393c0,0 23.306,-150.922 -278.354,-150.922Zm-151.888,87.207c27.406,0 49.557,22.15 49.557,49.556c0,27.406 -22.151,49.557 -49.557,49.557c-27.406,0 -49.557,-22.151 -49.557,-49.557c0,-27.406 22.151,-49.556 49.557,-49.556Z" style="fill:#212121;fill-rule:nonzero;stroke:#fff;stroke-width:5.15px;"/><path id="path8620" d="M681.889,1516.86c288.657,0 270.631,-125.179 270.631,-125.179l-0.322,-129.684l-275.458,0l0,-38.938l384.869,0c0,0 184.712,20.948 184.712,-270.309c0,-291.257 -161.22,-280.929 -161.22,-280.929l-96.218,0l0,135.155c0,0 5.187,161.22 -158.646,161.22c-163.832,0 -273.205,0 -273.205,0c0,0 -153.497,-2.481 -153.497,148.349c0,150.829 0,249.392 0,249.392c0,0 -23.306,150.923 278.354,150.923Zm151.888,-87.207c-27.406,0 -49.557,-22.151 -49.557,-49.557c0,-27.406 22.151,-49.556 49.557,-49.556c27.406,0 49.557,22.15 49.557,49.556c0,27.406 -22.151,49.557 -49.557,49.557Z" style="fill:#c62828;fill-rule:nonzero;stroke:#fff;stroke-width:5.15px;"/></g></g></g></svg>