<?xml version="1.0" encoding="UTF-8" standalone="no"?><!DOCTYPE svg PUBLIC "-//W3C//DTD SVG 1.1//EN" "http://www.w3.org/Graphics/SVG/1.1/DTD/svg11.dtd"><svg width="100%" height="100%" viewBox="0 0 512 512" version="1.1" xmlns="http://www.w3.org/2000/svg" xmlns:xlink="http://www.w3.org/1999/xlink" xml:space="preserve" style="fill-rule:evenodd;clip-rule:evenodd;stroke-linejoin:round;stroke-miterlimit:1.41421;"><rect id="Artboard1" x="0" y="0" width="512" height="512" style="fill:none;"/><g><g><g transform="matrix(0.560545,0,0,0.560545,85.681,108.659)"><text x="171.653px" y="554.403px" style="font-family:'ArialMT', 'Arial', sans-serif;font-size:602.203px;fill:none;">V</text><text x="171.653px" y="554.403px" style="font-family:'ArialMT', 'Arial', sans-serif;font-size:602.203px;fill:#c62828;stroke:#fff;stroke-width:8.92px;">V</text></g><path d="M355.917,309.449l13.322,-32.493l116.539,142.471l-42.195,0l-87.666,-109.978Zm-15.631,-57.046l-31.976,82.121l0,-156.73l31.976,0l0,74.609Z" style="fill:#212121;"/></g><clipPath id="_clip1"><rect id="Python.-logo.-notext" x="26.222" y="92.573" width="272.895" height="271.474"/></clipPath><g clip-path="url(#_clip1)"><g id="g1894"><path id="path8615" d="M161.686,92.573c-69.278,0 -64.952,30.043 -64.952,30.043l0.078,31.124l66.11,0l0,9.345l-92.369,0c0,0 -44.331,-5.028 -44.331,64.874c0,69.902 38.693,67.423 38.693,67.423l23.092,0l0,-32.437c0,0 -1.244,-38.693 38.075,-38.693c39.32,0 65.57,0 65.57,0c0,0 36.839,0.596 36.839,-35.604c0,-36.199 0,-59.854 0,-59.854c0,0 5.593,-36.221 -66.805,-36.221Zm-36.453,20.929c6.577,0 11.893,5.317 11.893,11.894c0,6.577 -5.316,11.894 -11.893,11.894c-6.578,0 -11.894,-5.317 -11.894,-11.894c0,-6.577 5.316,-11.894 11.894,-11.894Z" style="fill:#212121;fill-rule:nonzero;stroke:#fff;stroke-width:1.24px;"/><path id="path8620" d="M163.653,364.046c69.278,0 64.952,-30.043 64.952,-30.043l-0.077,-31.124l-66.11,0l0,-9.345l92.368,0c0,0 44.331,5.028 44.331,-64.874c0,-69.902 -38.693,-67.423 -38.693,-67.423l-23.092,0l0,32.437c0,0 1.245,38.693 -38.075,38.693c-39.32,0 -65.569,0 -65.569,0c0,0 -36.84,-0.595 -36.84,35.604c0,36.199 0,59.854 0,59.854c0,0 -5.593,36.221 66.805,36.221Zm36.454,-20.929c-6.578,0 -11.894,-5.316 -11.894,-11.894c0,-6.577 5.316,-11.893 11.894,-11.893c6.577,0 11.893,5.316 11.893,11.893c0,6.578 -5.316,11.894 -11.893,11.894Z" style="fill:#c62828;fill-rule:nonzero;stroke:#fff;stroke-width:1.24px;"/></g></g></g></svg>